<?xml version="1.0" encoding="utf-8"?>
<!-- Generator: Adobe Illustrator 25.2.1, SVG Export Plug-In . SVG Version: 6.00 Build 0)  -->
<svg version="1.1" id="Lag_1" xmlns="http://www.w3.org/2000/svg" xmlns:xlink="http://www.w3.org/1999/xlink" x="0px" y="0px"
	 viewBox="0 0 238.1102295 68.0314941" style="enable-background:new 0 0 238.1102295 68.0314941;" xml:space="preserve">
<style type="text/css">
	.st0{fill:#FFFFFF;}
</style>
<g>
	<path class="st0" d="M2.6197801,61.1998253c0-2.9523354,2.0527611-4.3447647,3.9954548-4.3447647
		c2.2537293,0,3.260962,1.373291,3.574389,2.6197777l2.382926-0.7512436
		c-0.5143948-2.1077805-2.366188-4.3040886-5.957315-4.3040886C3.131784,54.4195061,0,57.0560303,0,61.1998253
		c0,4.1413994,3.0217168,6.7611732,6.6511207,6.7611732c3.6485524,0,5.5170827-2.4164124,6.0123305-4.4165344l-2.3637781-0.7129631
		c-0.3492947,1.20821-1.4307089,2.658062-3.6485524,2.658062C4.5624924,65.489563,2.6197801,63.9679337,2.6197801,61.1998253
		 M36.8946114,61.1806831c0,2.9331932-2.0527611,4.3256264-4.0696373,4.3256264
		c-1.9977283,0-4.0528793-1.3924332-4.0528793-4.3256264s2.055151-4.3256226,4.0528793-4.3256226
		C34.8418503,56.8550606,36.8946114,58.2474899,36.8946114,61.1806831 M39.51437,61.1998253
		c0-4.198822-3.1508942-6.7803192-6.6893959-6.7803192c-3.5193558,0-6.670269,2.5814972-6.670269,6.7803192
		c0,4.1796761,3.1509132,6.7611732,6.670269,6.7611732C36.3634758,67.9609985,39.51437,65.3795013,39.51437,61.1998253
		 M60.5730782,58.7618752c0,1.1172943-0.7703781,1.8517876-2.0336151,1.8517876h-2.0001183v-3.7227135h2.0001183
		C59.8027,56.8909492,60.5730782,57.6063042,60.5730782,58.7618752 M63.1186943,58.7427368
		c0-2.3470345-1.7034492-4.0480919-4.2682114-4.0480919h-4.8567543v12.9912224h2.5264702v-4.892643h2.3302841
		C61.4152451,62.7932243,63.1186943,61.1089096,63.1186943,58.7427368 M77.3252945,67.6858673h8.1344681V65.305336h-5.6080017
		v-3.0073586h5.0768738v-2.2513351h-5.0768738v-2.9714699h5.6080017v-2.3805275h-8.1344681V67.6858673z M108.7028122,67.6858673
		h2.6532745V54.6946449h-2.5264664v8.5938225l-5.4070358-8.5938225h-3.1509018v12.9912224h2.5264664v-9.2182655
		L108.7028122,67.6858673z M134.8000946,67.6858673h2.5456085V54.6946449h-2.5456085v5.222805h-5.6654053v-5.222805h-2.526474
		v12.9912224h2.526474v-5.3878899h5.6654053V67.6858673z M159.4858246,62.4104233h-3.5911255l1.7967529-4.9117813
		L159.4858246,62.4104233z M161.4117737,67.6858673h2.7489624l-4.950058-12.9912224h-2.9308014l-4.9859467,12.9912224h2.6748047
		l1.0814056-2.9690857h5.2802277L161.4117737,67.6858673z M189.303421,58.4125748
		c-0.6411743-1.9977303-2.5288544-3.9930687-5.9381561-3.9930687c-2.9666901,0-5.6486816,1.8398247-6.4214478,4.9309235
		c-0.1507416,0.4306488-0.2440338,1.0287704-0.2440338,1.8302536c0,0.7895241,0.1100616,1.5240173,0.3134155,2.1939163
		c0.8349762,2.8901253,3.3423157,4.5863991,6.1869812,4.5863991c0.0239258,0,0.0454712-0.0047836,0.0669861-0.0047836
		c0.028717,0,0.0550385,0.0047836,0.0813599,0.0047836c4.045578,0,6.0822601-2.7354965,6.1291809-6.2234421l0.0208588-0.8080826
		l-0.2095032-0.0047874h-6.5290985v2.1987h4.1868591c-0.0047913,0.0382805-0.0239258,0.0861282-0.033493,0.1268005
		c-0.0765533,0.2440338-0.1674805,0.4904633-0.2966766,0.7297096c-0.2775269,0.4761047-0.7440491,0.9546051-1.4235382,1.2799835
		c-0.4808807,0.2057571-1.0694275,0.3397369-1.8445892,0.3397369c-1.4020233,0-2.8757935-0.701004-3.6078949-2.2178421
		c-0.038269-0.0837364-0.0909119-0.1555099-0.1244049-0.2440338c-0.0071716-0.0191383-0.0095673-0.0430641-0.0167389-0.0598106
		c-0.2033691-0.5430984-0.3206024-1.1675377-0.3206024-1.8781052c0-3.0791359,2.1269226-4.4189301,4.08638-4.4189301
		c2.1077881,0,3.1891785,1.3397942,3.5193481,2.4929733 M204.0794373,67.6858673h8.1344757V65.305336h-5.6080017v-3.0073586
		h5.0768585v-2.2513351h-5.0768585v-2.9714699h5.6080017v-2.3805275h-8.1344757V67.6858673z M238.1102295,67.6858673V54.6946449
		h-2.526474v8.5938225l-5.4094086-8.5938225h-3.1509247v12.9912224h2.5288696v-9.2182655l5.9022827,9.2182655H238.1102295z"/>
	<path class="st0" d="M221.8532715,11.5951195c0-2.9331932,1.7489014-5.2467294,4.7323303-5.2467294
		c3.2920685,0,4.6821136,2.2106614,4.6821136,5.0409789v14.7640581h6.842514V10.2050838
		c0-5.5553641-2.8829498-10.0317144-9.1584473-10.0317144c-2.7274475,0-5.7611237,1.1842849-7.3042908,3.8088472V0.8432681
		h-6.6367493v25.3101597h6.8425293V11.5951195z M186.6621246,11.5951195c0-2.9331932,1.751297-5.2467294,4.734726-5.2467294
		c3.2920685,0,4.6821136,2.2106614,4.6821136,5.0409789v14.7640581h6.8401337V10.2050838
		c0-5.5553641-2.8805695-10.0317144-9.1560669-10.0317144c-2.7274475,0-5.7611237,1.1842849-7.3066711,3.8088472V0.8432681
		h-6.6343689v25.3101597h6.8401337V11.5951195z M155.538208,21.7823467c-2.2106476,0-3.2920532-1.4402809-3.2920532-2.9331932
		c0-1.954668,1.3900299-2.9331923,3.1389465-3.1891899l5.7108612-0.8756542v1.1316519
		C161.0959625,20.3923073,158.4211578,21.7823467,155.538208,21.7823467 M145.4036255,19.2606602
		c0,3.9619656,3.2920685,7.6129074,8.6943054,7.6129074c3.7562103,0,6.1750183-1.7489128,7.4597778-3.7538185
		c0,0.9761353,0.1028748,2.3661747,0.2583923,3.0336781h6.2755127c-0.1531372-0.8732586-0.3086548-2.6748047-0.3086548-4.012207
		V9.6906977c0-5.0912199-2.9834137-9.620204-11.0102234-9.620204c-6.7898865,0-10.4432068,4.3734751-10.8547211,8.3354397
		l-0.0119629,0.1459398l6.1152039,0.8732586c0.3086395-2.0982118,1.9403076-3.8495159,4.8041229-3.8495159
		c2.8805542,0,4.2705841,1.4929156,4.2705841,3.2920656c0,0.8756542-0.4641418,1.5957909-1.9044189,1.8015461l-6.2252502,0.9258919
		C148.7483215,12.2123852,145.4036255,14.7340679,145.4036255,19.2606602 M103.0637131,26.1534271V11.336731
		c0-2.7776794,1.7513123-4.9883409,4.7347412-4.9883409c3.086319,0,4.4763565,2.0575433,4.4763565,4.7825904v15.0224466h6.7898865
		V11.336731c0-2.7250462,1.748909-4.9883409,4.6820984-4.9883409c3.1365585,0,4.4739685,2.0575433,4.4739685,4.7825904v15.0224466
		h6.6367645V9.7433357c0-6.7922821-4.4739532-9.6202087-9.1560593-9.6202087c-3.3447037,0-6.0195084,1.1316516-8.0268097,4.2179623
		c-1.2847595-2.727438-4.0624542-4.2179623-7.510025-4.2179623c-2.7776794,0-6.0195084,1.3374022-7.4095459,3.8064561V0.8432681
		h-6.5314941v25.3101597H103.0637131z M86.2421188,0.7403927c-0.514389-0.0526378-1.0287704-0.1028799-1.593399-0.1028799
		c-2.1604156,0-5.6606369,0.6172658-7.2037964,3.9619648V0.8432681h-6.6367645v25.3101597h6.8425293V14.5785589
		c0-5.4524889,3.0360641-7.151155,6.5338898-7.151155c0.6172562,0,1.2871628,0.0526333,2.0575409,0.2057552V0.7403927z
		 M46.9885254,0.0704937c-7.562664,0-13.2711449,5.6079974-13.2711449,13.4290514
		c0,7.7684164,5.7084808,13.4266558,13.2711449,13.4266558s13.2735405-5.6582394,13.2735405-13.4266558
		C60.2620659,5.6784911,54.5511894,0.0704937,46.9885254,0.0704937 M46.9885254,20.700943
		c-3.3423119,0-6.4286194-2.4690552-6.4286194-7.2013979c0-4.7849808,3.0863075-7.2037883,6.4286194-7.2037883
		c3.3446999,0,6.431015,2.4188075,6.431015,7.2037883C53.4195404,18.2821312,50.3332253,20.700943,46.9885254,20.700943
		 M7.2731829,11.5951195c0-2.9331932,1.74891-5.2467294,4.7323456-5.2467294c3.2920675,0,4.6821051,2.2106614,4.6821051,5.0409789
		v14.7640581h6.8425236V10.2050838c0-5.5553641-2.8805599-10.0317144-9.1584549-10.0317144
		c-2.7250481,0-5.761117,1.1842849-7.3042741,3.8088472V0.8432681H0.4306599v25.3101597h6.8425231V11.5951195z"/>
</g>
</svg>
